<?xml version="1.0" encoding="UTF-8"?>
<!--Generator: Apple Native CoreSVG 232.5-->
<!DOCTYPE svg
PUBLIC "-//W3C//DTD SVG 1.1//EN"
       "http://www.w3.org/Graphics/SVG/1.1/DTD/svg11.dtd">
<svg version="1.1" xmlns="http://www.w3.org/2000/svg" xmlns:xlink="http://www.w3.org/1999/xlink" width="12.4922" height="11.959">
 <g>
  <rect height="11.959" opacity="0" width="12.4922" x="0" y="0"/>
  <path d="M5.97656 11.9531C9.24609 11.9531 11.9531 9.24023 11.9531 5.97656C11.9531 2.70703 9.24023 0 5.9707 0C2.70703 0 0 2.70703 0 5.97656C0 9.24023 2.71289 11.9531 5.97656 11.9531ZM5.97656 10.957C3.21094 10.957 1.00195 8.74219 1.00195 5.97656C1.00195 3.21094 3.20508 0.996094 5.9707 0.996094C8.73633 0.996094 10.957 3.21094 10.957 5.97656C10.957 8.74219 8.74219 10.957 5.97656 10.957Z" fill="#007aff"/>
  <path d="M2.78906 8.50781C2.78906 8.73633 2.91211 8.86523 3.13477 8.86523C3.2168 8.86523 3.29297 8.83594 3.39258 8.7832L4.67578 8.08594L4.67578 3.0293C4.62305 3.05273 4.56445 3.08203 4.5 3.11719L3.05273 3.94336C2.85938 4.05469 2.78906 4.18359 2.78906 4.40039ZM5.0918 8.02734L6.63281 8.89453C6.67969 8.92383 6.73242 8.94141 6.77344 8.95312L6.77344 3.9668L5.26758 3.04688C5.20898 3.01172 5.15625 2.98828 5.0918 2.97656ZM7.18945 8.94141C7.21875 8.93555 7.24805 8.92383 7.2832 8.90625L8.87109 8.00391C9.06445 7.89258 9.14062 7.76367 9.14062 7.55273L9.14062 3.42773C9.14062 3.20508 9.01172 3.08203 8.79492 3.08203C8.71289 3.08203 8.63672 3.11133 8.53711 3.16406L7.18945 3.9082Z" fill="#ffffff" fill-opacity="0.85"/>
 </g>
</svg>
