<?xml version="1.0" standalone="no"?>
<!DOCTYPE svg PUBLIC "-//W3C//DTD SVG 20010904//EN"
 "http://www.w3.org/TR/2001/REC-SVG-20010904/DTD/svg10.dtd">
<svg version="1.0" xmlns="http://www.w3.org/2000/svg"
 width="704.000000pt" height="704.000000pt" viewBox="0 0 704.000000 704.000000"
 preserveAspectRatio="xMidYMid meet">
<metadata>
Created by potrace 1.14, written by Peter Selinger 2001-2017
</metadata>
<g transform="translate(0.000000,704.000000) scale(0.100000,-0.100000)"
fill="#000000" stroke="none">
<path d="M3799 7027 c-9 -7 -20 -21 -26 -32 -6 -13 -9 -1208 -9 -3480 1 -3032
3 -3463 16 -3483 28 -43 97 -41 127 4 15 24 16 263 16 3482 0 2712 -2 3462
-12 3480 -20 38 -80 53 -112 29z"/>
<path d="M3137 6564 c-2 -3 -101 -7 -218 -9 -222 -5 -350 -10 -554 -20 -114
-6 -162 -9 -308 -20 -35 -2 -97 -7 -138 -10 -67 -5 -105 -8 -209 -19 -19 -2
-64 -7 -100 -11 -36 -4 -76 -9 -90 -11 -14 -2 -47 -7 -75 -10 -193 -22 -342
-83 -447 -184 -32 -31 -58 -61 -58 -67 0 -6 -3 -13 -7 -15 -14 -6 -51 -82 -67
-138 -25 -88 -28 -124 -29 -323 0 -103 -3 -190 -7 -192 -3 -2 -47 -5 -96 -6
-106 -2 -175 -24 -223 -71 -70 -68 -66 -27 -69 -717 -3 -690 -3 -682 60 -750
50 -54 108 -74 228 -80 l105 -6 1 -1210 c1 -784 5 -1232 12 -1272 10 -57 55
-184 73 -208 5 -5 20 -24 33 -41 l25 -31 3 -394 3 -394 32 -66 c61 -123 147
-185 283 -204 52 -8 375 -8 438 -1 101 12 228 103 266 190 40 90 41 98 42 356
l0 255 65 -1 c35 -1 114 -5 174 -8 357 -20 551 -26 943 -31 l312 -3 1 89 c0
49 0 118 0 154 0 36 0 78 0 94 l-1 29 -257 2 c-374 2 -760 13 -943 25 -30 2
-107 7 -170 11 -63 4 -131 8 -150 9 -19 2 -71 6 -115 9 -44 4 -100 9 -125 11
-25 3 -72 7 -105 10 -278 26 -374 65 -431 177 -13 25 -27 70 -32 100 -11 69
-9 4255 2 4288 57 172 168 243 416 265 30 3 71 7 90 9 19 3 71 7 115 11 44 3
102 8 129 11 27 2 85 7 130 9 45 3 110 7 146 9 62 5 225 11 520 22 74 2 275 6
445 9 171 2 317 4 325 4 13 1 15 26 13 173 -2 95 -4 177 -7 183 -4 10 -321 13
-332 2 -3 -3 -18 -1 -34 3 -16 4 -30 6 -33 4z"/>
<path d="M4163 6560 c-17 -5 -18 -19 -18 -175 l0 -170 120 -1 c208 -3 569 -18
695 -29 112 -10 174 -16 200 -19 14 -2 48 -7 75 -10 28 -3 64 -8 80 -10 111
-14 301 -87 352 -135 12 -12 26 -21 31 -21 5 0 40 -33 79 -72 73 -76 131 -158
171 -243 24 -50 73 -176 73 -185 0 -3 4 -21 9 -40 5 -19 11 -46 14 -60 2 -14
5 -25 6 -25 1 0 3 -9 5 -20 2 -11 8 -42 14 -70 18 -86 19 -92 25 -126 9 -54
25 -142 29 -164 5 -23 15 -92 22 -150 7 -54 14 -106 19 -132 3 -12 7 -48 11
-80 3 -32 8 -69 10 -83 2 -14 6 -54 10 -90 3 -36 8 -81 10 -100 10 -98 22
-278 31 -455 8 -165 9 -2079 1 -2135 -23 -160 -74 -274 -165 -365 -43 -45
-145 -116 -172 -121 -3 0 -18 -6 -35 -13 -38 -16 -129 -39 -180 -46 -22 -3
-376 -6 -787 -6 -550 -1 -748 -4 -750 -13 -2 -6 -3 -87 -3 -181 l0 -170 605
-2 c333 -1 612 -2 620 -2 14 -1 16 -40 15 -328 -1 -355 1 -375 52 -419 33 -28
64 -33 178 -30 100 2 120 10 157 58 l25 33 2 270 c2 335 2 303 0 350 -2 62 0
87 9 81 4 -2 53 8 109 24 356 99 580 342 666 726 7 34 13 73 12 88 0 14 3 26
7 26 10 0 4 2208 -5 2315 -4 39 -9 108 -12 155 -9 134 -28 338 -40 430 -3 19
-10 71 -16 115 -5 44 -12 96 -15 115 -2 19 -6 46 -9 60 -3 14 -7 41 -10 60
-12 83 -44 245 -91 460 -3 14 -7 45 -9 70 -3 47 -25 135 -46 185 -6 17 -13 35
-15 42 -10 47 -136 267 -193 338 -38 47 -223 225 -233 225 -5 0 -18 8 -29 18
-10 11 -32 25 -47 33 -15 7 -47 25 -72 39 -58 33 -170 80 -191 80 -9 0 -19 3
-23 7 -3 4 -12 8 -19 9 -7 2 -43 9 -82 18 -120 25 -204 33 -605 52 -80 4 -214
8 -297 8 -84 1 -153 3 -153 6 0 3 -47 5 -104 5 -58 0 -113 -2 -123 -5z"/>
<path d="M3237 5894 c-1 -1 -108 -5 -237 -8 -129 -4 -271 -9 -315 -11 -44 -2
-134 -6 -200 -9 -66 -3 -142 -8 -170 -10 -27 -3 -93 -8 -145 -11 -52 -3 -122
-8 -155 -11 -33 -3 -85 -7 -115 -9 -30 -2 -55 -4 -55 -5 0 0 -27 -3 -61 -5
-90 -7 -182 -47 -223 -97 -13 -16 -34 -55 -47 -86 l-23 -57 0 -1290 0 -1290
24 -59 c42 -103 112 -153 240 -171 22 -3 51 -8 65 -10 14 -3 45 -7 70 -10 25
-3 61 -7 80 -10 53 -8 109 -15 170 -20 30 -3 73 -8 95 -11 22 -3 66 -7 97 -9
32 -2 81 -7 110 -10 29 -4 82 -8 118 -10 36 -3 101 -7 145 -10 298 -20 820
-34 831 -22 7 7 6 3238 -1 3246 -5 5 -293 10 -298 5z"/>
<path d="M4169 5896 c-1 -1 -3 -24 -4 -52 -1 -27 -5 -55 -8 -61 -4 -7 -4 -14
0 -16 10 -6 8 -100 -1 -116 -4 -6 -4 -11 1 -11 10 0 9 -133 -1 -149 -4 -6 -4
-11 1 -11 9 0 8 -113 -1 -136 -3 -8 -2 -14 2 -14 4 0 6 -17 5 -37 -3 -48 -3
-100 0 -138 1 -16 -1 -38 -6 -47 -4 -10 -4 -18 0 -18 5 0 7 -17 6 -37 -3 -44
-3 -65 -1 -224 1 -63 -1 -123 -5 -132 -3 -9 -3 -17 1 -17 9 0 7 -134 -2 -149
-4 -6 -4 -11 1 -11 10 0 9 -133 -1 -149 -4 -6 -4 -11 1 -11 10 0 9 -133 -1
-149 -4 -6 -4 -11 1 -11 9 0 8 -113 -1 -136 -3 -8 -2 -14 2 -14 4 0 6 -17 5
-37 -3 -48 -3 -100 0 -138 1 -16 -1 -38 -6 -47 -4 -10 -4 -18 0 -18 5 0 7 -17
6 -37 -3 -44 -3 -65 -1 -224 1 -63 -1 -123 -5 -132 -3 -9 -3 -17 1 -17 9 0 7
-134 -2 -149 -4 -6 -4 -11 1 -11 10 0 9 -133 -1 -149 -4 -6 -4 -11 1 -11 10 0
9 -133 -1 -149 -4 -6 -4 -11 1 -11 4 0 7 -26 6 -57 -3 -59 -3 -91 -2 -175 1
-55 -18 -50 179 -49 297 3 617 12 840 26 41 3 113 7 160 10 204 12 320 25 355
39 77 33 131 106 163 222 19 67 20 99 17 530 -3 387 -8 569 -15 569 0 0 -3 25
-5 55 -3 30 -7 69 -9 85 -3 17 -7 57 -11 90 -4 33 -9 71 -11 85 -2 14 -6 49
-10 78 -3 29 -7 63 -10 75 -2 12 -7 40 -9 62 -3 22 -10 65 -15 95 -6 30 -12
69 -14 85 -2 17 -7 48 -11 70 -5 22 -9 49 -10 60 -2 18 -4 35 -21 120 -3 17
-7 44 -10 60 -2 17 -6 41 -9 53 -3 13 -8 42 -11 64 -7 45 -8 53 -17 88 -4 14
-9 36 -11 50 -12 76 -19 108 -26 135 -5 17 -11 46 -14 65 -3 19 -10 50 -15 68
-5 17 -8 32 -6 32 3 0 -5 21 -16 47 -41 97 -98 146 -179 157 -25 3 -56 8 -70
10 -14 3 -59 10 -100 16 -41 6 -85 13 -98 15 -13 2 -53 7 -90 10 -37 3 -87 8
-112 10 -115 11 -758 28 -771 21z"/>
<path d="M1900 2300 c-111 -13 -220 -101 -261 -209 -68 -182 27 -380 211 -440
30 -9 134 -17 150 -11 3 1 18 4 34 6 72 12 172 88 208 158 88 169 31 374 -127
459 -22 11 -42 22 -45 22 -97 20 -114 22 -170 15z"/>
<path d="M5669 2299 c-7 -4 -16 -6 -21 -3 -22 14 -188 -88 -188 -116 0 -5 -4
-10 -8 -10 -13 0 -51 -90 -61 -141 -29 -165 70 -330 226 -375 45 -13 123 -21
143 -14 3 1 18 3 34 5 109 14 240 144 251 249 2 17 4 33 5 36 1 3 2 29 1 59
-5 129 -92 251 -207 290 -67 22 -155 32 -175 20z"/>
<path d="M2789 2210 c-60 -19 -118 -70 -135 -121 -49 -147 10 -290 136 -328
30 -9 141 -12 392 -12 192 0 352 1 354 3 3 4 6 272 5 418 l-1 55 -352 0 c-284
0 -360 -3 -399 -15z"/>
<path d="M4148 2203 c-2 -4 -4 -111 -3 -238 l0 -230 350 -2 c193 -1 366 3 385
7 55 14 113 57 139 103 32 55 39 178 14 229 -28 56 -61 90 -112 115 -32 16
-73 18 -403 21 -201 2 -368 -1 -370 -5z"/>
</g>
</svg>
