<?xml version="1.0" encoding="UTF-8"?>
<!--Generator: Apple Native CoreSVG 232.5-->
<!DOCTYPE svg
PUBLIC "-//W3C//DTD SVG 1.1//EN"
       "http://www.w3.org/Graphics/SVG/1.1/DTD/svg11.dtd">
<svg version="1.1" xmlns="http://www.w3.org/2000/svg" xmlns:xlink="http://www.w3.org/1999/xlink" width="13.8297" height="13.2965">
 <g>
  <rect height="13.2965" opacity="0" width="13.8297" x="0" y="0"/>
  <path d="M7.94609 0.657029L12.6336 5.34453C13.5008 6.21172 13.5066 7.07304 12.6512 7.92851L7.93437 12.6512C7.07304 13.5066 6.21758 13.5008 5.35039 12.6336L0.657029 7.94023C-0.210159 7.07304-0.221877 6.21758 0.639451 5.35625L5.36211 0.639451C6.22344-0.221877 7.0789-0.210159 7.94609 0.657029ZM7.42461 4.31328L7.42461 5.08672L5.76054 5.08672C4.58281 5.08672 4.02617 5.64922 4.02617 6.82109L4.02617 8.36211C4.02617 8.70781 4.19609 8.91289 4.5125 8.90703C4.81719 8.90117 4.99883 8.70781 4.99883 8.36211L4.99883 6.86797C4.99883 6.32304 5.25664 6.06523 5.77226 6.06523L7.42461 6.06523L7.42461 6.84453C7.42461 7.23711 7.8289 7.40703 8.13945 7.16679L9.56914 6.05351C9.94414 5.75469 9.94414 5.39726 9.56914 5.09844L8.13945 3.99101C7.8289 3.75078 7.42461 3.9207 7.42461 4.31328Z" fill="#ff453a"/>
 </g>
</svg>
