<?xml version="1.0" encoding="UTF-8"?>
<!--Generator: Apple Native CoreSVG 232.5-->
<!DOCTYPE svg
PUBLIC "-//W3C//DTD SVG 1.1//EN"
       "http://www.w3.org/Graphics/SVG/1.1/DTD/svg11.dtd">
<svg version="1.1" xmlns="http://www.w3.org/2000/svg" xmlns:xlink="http://www.w3.org/1999/xlink" width="12.5801" height="11.5957">
 <g>
  <rect height="11.5957" opacity="0" width="12.5801" x="0" y="0"/>
  <path d="M4.24219 11.5898L7.79883 11.5898C8.54297 11.5898 8.89453 11.3496 9.28125 10.9336L11.5547 8.42578C11.9355 8.00391 12.041 7.7168 12.041 7.13672L12.041 4.45898C12.041 3.87305 11.9355 3.5918 11.5547 3.16992L9.28125 0.662109C8.89453 0.246094 8.54297 0 7.79883 0L4.24219 0C3.49805 0 3.14062 0.246094 2.75977 0.662109L0.486328 3.16992C0.0996094 3.5918 0 3.87305 0 4.45898L0 7.13672C0 7.7168 0.0996094 8.00391 0.486328 8.42578L2.75977 10.9336C3.14062 11.3496 3.49805 11.5898 4.24219 11.5898Z" fill="#ff453a"/>
  <path d="M6.02344 6.88477C5.71875 6.88477 5.54883 6.71484 5.54297 6.4043L5.4668 3.21094C5.46094 2.90039 5.68945 2.67773 6.01758 2.67773C6.33984 2.67773 6.58008 2.90625 6.57422 3.2168L6.49219 6.4043C6.48633 6.7207 6.31641 6.88477 6.02344 6.88477ZM6.02344 8.84766C5.67188 8.84766 5.36719 8.56641 5.36719 8.2207C5.36719 7.875 5.66602 7.58789 6.02344 7.58789C6.38086 7.58789 6.67969 7.86914 6.67969 8.2207C6.67969 8.57227 6.375 8.84766 6.02344 8.84766Z" fill="#ffffff"/>
 </g>
</svg>
