<?xml version="1.0" encoding="UTF-8"?>
<!--Generator: Apple Native CoreSVG 232.5-->
<!DOCTYPE svg
PUBLIC "-//W3C//DTD SVG 1.1//EN"
       "http://www.w3.org/Graphics/SVG/1.1/DTD/svg11.dtd">
<svg version="1.1" xmlns="http://www.w3.org/2000/svg" xmlns:xlink="http://www.w3.org/1999/xlink" width="12.4922" height="11.959">
 <g>
  <rect height="11.959" opacity="0" width="12.4922" x="0" y="0"/>
  <path d="M11.9531 5.97656C11.9531 9.24023 9.24609 11.9531 5.97656 11.9531C2.71289 11.9531 0 9.24023 0 5.97656C0 2.70703 2.70703 0 5.9707 0C9.24023 0 11.9531 2.70703 11.9531 5.97656ZM2.73047 5.97656C2.73047 7.74609 4.20703 9.2168 5.97656 9.2168C7.74609 9.2168 9.22266 7.74609 9.22266 5.97656C9.22266 4.20703 7.74609 2.73047 5.9707 2.73047C4.20117 2.73047 2.73047 4.20703 2.73047 5.97656ZM6.27539 3.9668L6.27539 6.09961C6.27539 6.26367 6.13477 6.38672 5.9707 6.38672L4.33008 6.38672C4.16016 6.38672 4.03125 6.26953 4.03125 6.09961C4.03125 5.92969 4.16016 5.80664 4.33008 5.80664L5.67773 5.80664L5.67773 3.9668C5.67773 3.80273 5.80664 3.67383 5.9707 3.67383C6.14062 3.67383 6.27539 3.80273 6.27539 3.9668Z" fill="#000000"/>
 </g>
</svg>
