<?xml version="1.0" encoding="UTF-8"?>
<svg id="Layer_2" data-name="Layer 2" xmlns="http://www.w3.org/2000/svg" xmlns:xlink="http://www.w3.org/1999/xlink" viewBox="0 0 227.9 44.3">
  <defs>
    <style>
      .cls-1 {
        fill: #fff;
        stroke: #fff;
        stroke-linecap: round;
        stroke-miterlimit: 10;
      }

      .cls-2 {
        fill: url(#linear-gradient);
      }

      .cls-2, .cls-3, .cls-4, .cls-5, .cls-6, .cls-7, .cls-8 {
        stroke-width: 0px;
      }

      .cls-3 {
        fill: #e83895;
      }

      .cls-4 {
        fill: #5bcaea;
      }

      .cls-5 {
        fill: url(#linear-gradient-4);
      }

      .cls-6 {
        fill: url(#linear-gradient-2);
      }

      .cls-7 {
        fill: url(#linear-gradient-3);
      }

      .cls-8 {
        fill: url(#linear-gradient-5);
      }
    </style>
    <linearGradient id="linear-gradient" x1="63.7" y1="37.3" x2="63.7" y2="7" gradientUnits="userSpaceOnUse">
      <stop offset="0" stop-color="#5ccae9"/>
      <stop offset="1" stop-color="#e63b95"/>
    </linearGradient>
    <linearGradient id="linear-gradient-2" x1="93.1" x2="93.1" xlink:href="#linear-gradient"/>
    <linearGradient id="linear-gradient-3" x1="120.1" y1="38" x2="120.1" y2="6.3" xlink:href="#linear-gradient"/>
    <linearGradient id="linear-gradient-4" x1="147.2" y1="38" x2="147.2" y2="6.3" xlink:href="#linear-gradient"/>
    <linearGradient id="linear-gradient-5" x1="174.6" y1="37.7" x2="174.6" xlink:href="#linear-gradient"/>
  </defs>
  <g id="Layer_1-2" data-name="Layer 1">
    <g>
      <path class="cls-3" d="M34.2,21v3.9c0,1-.4,2.2-1.4,2.4-1.8.2-5.1.4-9.4.4h0V7.2s0,0,0,0c4.9,0,5.9.2,7.7.5.8,0,1.2.6,1.4,1.4.3,1.2,1.7,8.5,1.7,11.9Z"/>
      <path class="cls-3" d="M37.5,9.7c-.8-3.6-3.4-6-6.8-6.4-1.1-.1-4.1-.3-7.4-.3h0v2.2h0c3.1,0,6,.2,7.1.4,2.4.2,4.2,1.9,4.8,4.6.7,3,1.3,7.5,1.3,11.9v10.4c0,2.5-1.4,4.2-4.4,4.2h-8.8v2.3s9.3,0,9.3,0c3.9,0,6.2-2.7,6.2-6.5v-10.4c0-4.6-.6-9.3-1.4-12.4Z"/>
    </g>
    <g>
      <path class="cls-4" d="M19.5,7.2v20.5c-4,0-7.9-.3-11.3-.8-1.1-.2-1.6-.8-1.6-2v-15.1c0-1.3.6-2,1.9-2.1,3.5-.3,7.3-.5,11.1-.5Z"/>
      <path class="cls-4" d="M19.5,30.3v3h-4.2c-.9,0-1.5-.6-1.5-1.5s.6-1.5,1.5-1.5h4.2Z"/>
      <path class="cls-4" d="M11.6,31.9c0,1.2-.9,2.1-2.1,2.1s-2.1-.9-2.1-2.1.9-2.1,2.1-2.1,2.1.9,2.1,2.1Z"/>
      <path class="cls-4" d="M6.8,5.9c3.2-.4,7.8-.6,12.7-.6h0v-2.3h0c-4.8,0-9.7.2-13.3.7-2.4.3-3.7,1.6-3.7,3.8v2h-.8c-1,0-1.7.6-1.7,1.5v7.2c0,.9.7,1.5,1.7,1.5h.8v14.8c0,1.1.3,2,.9,2.6v4.4c0,1.3,1,2.3,2.3,2.3h2.1c1.3,0,2.3-1,2.3-2.3v-2.8c2.9.2,6,.3,9.4.3h0v-2.3h0c-5.2,0-9.5-.2-12.7-.6-1.5-.2-2-.9-2-2.3V8.2c0-1.3.7-2.1,2-2.3Z"/>
    </g>
    <path class="cls-3" d="M35.3,31.9c0,1.2-.9,2.1-2.1,2.1s-2.1-.9-2.1-2.1.9-2.1,2.1-2.1,2.1.9,2.1,2.1Z"/>
    <path class="cls-3" d="M23.3,33.4v-3h4.2c.9,0,1.5.6,1.5,1.5s-.6,1.5-1.5,1.5h-4.2Z"/>
    <line class="cls-1" x1="21.4" y1=".5" x2="21.4" y2="43.8"/>
    <path class="cls-3" d="M31.1,38.6h2.6v4.5c0,.4-.4.8-.8.8h-1c-.4,0-.8-.4-.8-.8v-4.5h0Z"/>
    <g>
      <path class="cls-2" d="M77.2,10.9v26.4h-3.3c-3.4,0-6.2-1.5-9-6.4l-3.6-6.4-1.6-2.9c-.8-1.1-1.4-2.2-1.5-2.5v18.2h-3.4c-2.3,0-4.7-1.6-4.7-4.7V7h4c4.5,0,7.4,2.2,9.4,6.2l5,9.7.7,1.2V7h3.7c2,0,4.2,1.5,4.2,3.9Z"/>
      <path class="cls-6" d="M106.6,9.7c0,2.2-4.8,9.5-7.9,13.5-.4.6-.8,1.1-1.2,1.5v12.7h-3.6c-2.3,0-4.7-1.6-4.7-4.7v-8.1c-.6-.8-1.3-1.7-1.9-2.6h0c-2.9-4.2-5.9-9.5-7.6-15h4.2c2.8,0,4.4,1.3,5,2.6,1.3,2.8,3.1,6,4.9,8.5,1.9-2.7,4.4-6.9,5.8-11.1h3.9c1.9,0,3.2,1.4,3.2,2.7Z"/>
      <path class="cls-7" d="M132,27.7v.2c-.1,6.2-4.7,10.1-12.7,10.1s-10.3-2.6-10.3-6.9v-3h.2c1.9,1.9,5.8,3.1,9.3,3.1s5.1-.9,5.1-2.9,0-.4,0-.7c-.4-1.4-2.2-1.9-6.2-2.8-6.6-1.3-9.1-3.7-9.1-8.3s4.9-10.2,12.6-10.2,10.3,3.4,10.3,6.5v3.2h-.2c-2-2-5.6-2.9-8.8-2.9s-5.5,1.1-5.5,2.8.6,2.1,6.2,3.2c6.3,1.3,9.2,3.8,9.2,8.5Z"/>
      <path class="cls-5" d="M159,27.7c0,6.3-4.6,10.3-12.7,10.3s-10.3-2.6-10.3-6.9v-3h.2c1.9,1.9,5.9,3.1,9.3,3.1s5.1-.9,5.1-2.9-1.3-2.3-4.7-3.1h0c-.5-.1-1-.2-1.6-.3-6.6-1.3-9.1-3.7-9.1-8.3s4.9-10.2,12.6-10.2,10.3,3.4,10.3,6.5h0v3.2h-.2c-2.1-2-5.7-2.9-8.8-2.9s-5.6,1.1-5.6,2.8.6,2.1,6.2,3.2c2.9.6,5.1,1.5,6.6,2.7,1.8,1.4,2.6,3.3,2.6,5.8Z"/>
      <path class="cls-8" d="M171.5,17.2c0,.7,0,1.2,0,1.8h11.7v3c0,2.2-1.6,3.4-4.6,3.4h-7.1v1.1c0,3.2,1.1,4.4,5.3,4.4h2.2c2.5,0,4.6-.2,7.1-.8v3.2c0,2.8-1.7,4.4-7.1,4.4h-3.4c-7.9,0-12.3-4-12.3-12.4v-5.6c0-2.6.2-5.5.5-7.6.5-3.9,2.9-5,5.8-5h16.5v2c0,2.9-1.5,4.8-5.1,4.8h-9.2c-.1,1-.2,2.2-.3,3.4Z"/>
    </g>
    <g>
      <path class="cls-3" d="M196.8,7v8.5h5v2.7h-8.2V7h3.1Z"/>
      <path class="cls-3" d="M206.4,7v11.2h-3.1V7h3.1Z"/>
      <path class="cls-3" d="M218.6,7l-4.4,11.3h-2.3l-4.4-11.3h3.5l1.5,4.3.7,2.2.7-2.2,1.5-4.3h3.3Z"/>
      <path class="cls-3" d="M227.7,7v2.6h-5v1.6h4.4v2.6h-4.4v1.7h5.2v2.6h-8.3V7h8.2,0Z"/>
    </g>
  </g>
</svg>