<?xml version="1.0" encoding="UTF-8"?>
<!--Generator: Apple Native CoreSVG 232.5-->
<!DOCTYPE svg
PUBLIC "-//W3C//DTD SVG 1.1//EN"
       "http://www.w3.org/Graphics/SVG/1.1/DTD/svg11.dtd">
<svg version="1.1" xmlns="http://www.w3.org/2000/svg" xmlns:xlink="http://www.w3.org/1999/xlink" width="12.4922" height="11.959">
 <g>
  <rect height="11.959" opacity="0" width="12.4922" x="0" y="0"/>
  <path d="M11.9531 5.98242C11.9531 9.25195 9.24609 11.959 5.97656 11.959C2.71289 11.959 0 9.25195 0 5.98242C0 2.71875 2.70703 0.00585938 5.9707 0.00585938C9.24023 0.00585938 11.9531 2.71875 11.9531 5.98242ZM6.75 7.10156C7.37695 7.0957 8.36133 7.42969 8.36133 7.89844C8.36133 8.41992 7.36523 8.80664 5.97656 8.80664C4.58203 8.80664 3.59766 8.42578 3.59766 7.89844C3.59766 7.42969 4.57617 7.0957 5.20312 7.10156L5.20312 6.54492C4.29492 6.53906 2.85938 7.06641 2.85938 7.97461C2.85938 8.71875 4.01367 9.4043 5.97656 9.4043C7.93945 9.4043 9.09375 8.71875 9.09375 7.97461C9.09375 7.06641 7.6582 6.53906 6.75 6.54492ZM4.7168 3.46289C4.7168 4.03711 5.10352 4.5293 5.63672 4.6875L5.63672 6.71484C5.63672 7.67578 5.80078 8.2207 5.97656 8.2207C6.1582 8.2207 6.32227 7.68164 6.32227 6.71484L6.32227 4.6875C6.84961 4.5293 7.23633 4.03711 7.23633 3.46289C7.23633 2.76562 6.67969 2.20312 5.97656 2.20312C5.27344 2.20312 4.7168 2.76562 4.7168 3.46289ZM6.03516 3.11133C6.03516 3.33984 5.85352 3.52734 5.625 3.52734C5.41992 3.52734 5.2207 3.33984 5.2207 3.11133C5.2207 2.88867 5.41992 2.70703 5.625 2.70703C5.85352 2.70703 6.03516 2.88867 6.03516 3.11133Z" fill="#000000"/>
 </g>
</svg>
