<?xml version="1.0" encoding="UTF-8"?>
<!--Generator: Apple Native CoreSVG 232.5-->
<!DOCTYPE svg
PUBLIC "-//W3C//DTD SVG 1.1//EN"
       "http://www.w3.org/Graphics/SVG/1.1/DTD/svg11.dtd">
<svg version="1.1" xmlns="http://www.w3.org/2000/svg" xmlns:xlink="http://www.w3.org/1999/xlink" width="12.4922" height="11.959">
 <g>
  <rect height="11.959" opacity="0" width="12.4922" x="0" y="0"/>
  <path d="M11.9531 5.98242C11.9531 9.25195 9.24609 11.959 5.97656 11.959C2.71289 11.959 0 9.25195 0 5.98242C0 2.71875 2.70703 0.00585938 5.9707 0.00585938C9.24023 0.00585938 11.9531 2.71875 11.9531 5.98242ZM4.70508 2.47266C4.18945 2.53125 3.84961 2.90039 3.72656 3.39258C3.60938 3.88477 3.50391 4.65234 3.50391 5.42578L3.50391 7.54102C3.50391 8.13867 3.84961 8.39062 4.4707 8.39648L3.82617 9.42773C3.74414 9.55078 3.81445 9.69141 3.95508 9.69141L4.11328 9.69141C4.20117 9.69141 4.24805 9.66211 4.28906 9.5918L4.46484 9.31641L7.5 9.31641L7.67578 9.5918C7.7168 9.66211 7.76367 9.69141 7.85156 9.69141L8.01562 9.69141C8.15039 9.69141 8.21484 9.55078 8.13281 9.42773L7.5 8.39648C8.14453 8.39648 8.44922 8.10352 8.44922 7.54102L8.44922 5.42578C8.44922 4.65234 8.34375 3.88477 8.22656 3.39258C8.10352 2.90039 7.76367 2.53125 7.24805 2.47266C7.06641 2.44922 6.57422 2.4082 5.97656 2.4082C5.37891 2.4082 4.88672 2.44922 4.70508 2.47266ZM7.23047 8.87109L4.73438 8.87109L5.02734 8.39648L6.9375 8.39648ZM7.74609 7.37695C7.74609 7.60547 7.55859 7.78711 7.33594 7.78711C7.10742 7.78711 6.93164 7.60547 6.93164 7.37695C6.93164 7.14258 7.10742 6.9668 7.33594 6.9668C7.56445 6.9668 7.74609 7.14258 7.74609 7.37695ZM5.01562 7.37695C5.01562 7.61133 4.83984 7.78125 4.61133 7.78125C4.38281 7.78125 4.21289 7.61133 4.21289 7.37695C4.21289 7.14258 4.38281 6.97266 4.61133 6.97266C4.8457 6.97266 5.01562 7.14258 5.01562 7.37695ZM7.48828 3.88477C7.62305 3.90234 7.70508 3.99023 7.73438 4.125C7.77539 4.33594 7.8457 4.81055 7.8457 5.40234L7.8457 6.08203C7.8457 6.25195 7.77539 6.36328 7.59961 6.38086C7.125 6.43359 6.50391 6.45703 5.97656 6.45703C5.29102 6.45117 4.66992 6.41602 4.35352 6.38086C4.17773 6.36328 4.10742 6.25195 4.10742 6.08203L4.10742 5.40234C4.10742 4.81055 4.17773 4.33594 4.21875 4.125C4.24805 3.99023 4.33008 3.90234 4.45312 3.88477C4.78711 3.84961 5.19727 3.82031 5.97656 3.82031C6.75586 3.81445 7.16602 3.84961 7.48828 3.88477ZM6.91406 3.14648C6.91406 3.24609 6.83203 3.32812 6.72656 3.32812L5.22656 3.32812C5.12109 3.32812 5.04492 3.24609 5.04492 3.14648C5.04492 3.03516 5.12109 2.9707 5.22656 2.9707L6.72656 2.9707C6.83203 2.9707 6.91406 3.03516 6.91406 3.14648Z" fill="#000000"/>
 </g>
</svg>
