<?xml version="1.0" encoding="UTF-8"?>
<!--Generator: Apple Native CoreSVG 232.5-->
<!DOCTYPE svg
PUBLIC "-//W3C//DTD SVG 1.1//EN"
       "http://www.w3.org/Graphics/SVG/1.1/DTD/svg11.dtd">
<svg version="1.1" xmlns="http://www.w3.org/2000/svg" xmlns:xlink="http://www.w3.org/1999/xlink" width="12.4922" height="11.959">
 <g>
  <rect height="11.959" opacity="0" width="12.4922" x="0" y="0"/>
  <path d="M5.97656 11.9531C9.24609 11.9531 11.9531 9.24023 11.9531 5.97656C11.9531 2.70703 9.24023 0 5.9707 0C2.70703 0 0 2.70703 0 5.97656C0 9.24023 2.71289 11.9531 5.97656 11.9531Z" fill="#ff453a"/>
  <path d="M5.97656 7.06641C5.67188 7.06641 5.50195 6.89648 5.49609 6.58594L5.41992 3.39258C5.41406 3.08203 5.64258 2.85938 5.9707 2.85938C6.29297 2.85938 6.5332 3.08789 6.52734 3.39844L6.44531 6.58594C6.43945 6.90234 6.26953 7.06641 5.97656 7.06641ZM5.97656 9.0293C5.625 9.0293 5.32031 8.74805 5.32031 8.40234C5.32031 8.05664 5.61914 7.76953 5.97656 7.76953C6.33398 7.76953 6.63281 8.05078 6.63281 8.40234C6.63281 8.75391 6.32812 9.0293 5.97656 9.0293Z" fill="#ffffff"/>
 </g>
</svg>
