<?xml version="1.0" encoding="UTF-8"?>
<svg xmlns="http://www.w3.org/2000/svg" version="1.1" viewBox="0 0 23.3 23">
  <defs>
    <style>
      .cls-1 {
        fill: #1a4a8f;
      }

      .cls-2 {
        fill: #fff;
        fill-opacity: .9;
      }

      .cls-3 {
        fill-opacity: 0;
      }
    </style>
  </defs>
  <!-- Generator: Adobe Illustrator 28.6.0, SVG Export Plug-In . SVG Version: 1.2.0 Build 709)  -->
  <g>
    <g id="Layer_1">
      <g>
        <rect class="cls-3" width="23.3" height="23"/>
        <path class="cls-1" d="M3.8,23h15.4c2.5,0,3.8-1.3,3.8-3.8V3.8C23,1.3,21.7,0,19.2,0H3.8C1.3,0,0,1.3,0,3.8v15.4c0,2.5,1.3,3.8,3.8,3.8Z"/>
        <path class="cls-2" d="M11.5,3.6c.2,0,.4.1.6.3l3.8,3.8c.2.1.2.3.2.6,0,.4-.3.8-.8.8s-.4,0-.6-.2l-1.1-1.1-1.4-1.6v2.5c0,0,0,5.6,0,5.6v2.5c0,0,1.3-1.6,1.3-1.6l1.1-1.1c.2-.2.4-.3.6-.3.5,0,.8.3.8.8s0,.4-.2.6l-3.8,3.8c-.2.2-.4.3-.6.3s-.4,0-.6-.3l-3.8-3.8c-.2-.1-.2-.4-.2-.6,0-.5.4-.8.8-.8s.4,0,.6.3l1.1,1.1,1.4,1.6v-2.5c0,0,0-5.6,0-5.6v-2.5c0,0-1.3,1.6-1.3,1.6l-1.1,1.1c-.2.2-.4.2-.6.2-.4,0-.8-.3-.8-.8s0-.4.2-.6l3.8-3.8c.2-.2.4-.3.6-.3Z"/>
      </g>
    </g>
  </g>
</svg>