<?xml version="1.0" encoding="UTF-8"?>
<svg id="Layer_1" data-name="Layer 1" xmlns="http://www.w3.org/2000/svg" xmlns:xlink="http://www.w3.org/1999/xlink" version="1.1" viewBox="0 0 190.406 31.7099">
  <defs>
    <style>
      .cls-1 {
        fill: url(#linear-gradient);
      }

      .cls-1, .cls-2, .cls-3, .cls-4, .cls-5, .cls-6 {
        stroke-width: 0px;
      }

      .cls-2 {
        fill: url(#linear-gradient-4);
      }

      .cls-3 {
        fill: url(#linear-gradient-2);
      }

      .cls-4 {
        fill: url(#linear-gradient-3);
      }

      .cls-5 {
        fill: #00c3ff;
      }

      .cls-6 {
        fill: #fff;
      }
    </style>
    <linearGradient id="linear-gradient" x1="150.7323" y1=".7088" x2="150.7323" y2="15.4598" gradientUnits="userSpaceOnUse">
      <stop offset="0" stop-color="#ff00bd"/>
      <stop offset="1" stop-color="#ff151b"/>
    </linearGradient>
    <linearGradient id="linear-gradient-2" x1="160.0428" y1=".7088" x2="160.0428" y2="15.4598" gradientUnits="userSpaceOnUse">
      <stop offset="0" stop-color="#ff00bd"/>
      <stop offset="1" stop-color="#ff151b"/>
    </linearGradient>
    <linearGradient id="linear-gradient-3" x1="170.7721" y1=".7088" x2="170.7721" y2="15.5619" gradientUnits="userSpaceOnUse">
      <stop offset="0" stop-color="#ff00bd"/>
      <stop offset="1" stop-color="#ff151b"/>
    </linearGradient>
    <linearGradient id="linear-gradient-4" x1="184.9158" y1=".7088" x2="184.9158" y2="15.4598" gradientUnits="userSpaceOnUse">
      <stop offset="0" stop-color="#ff00bd"/>
      <stop offset="1" stop-color="#ff151b"/>
    </linearGradient>
  </defs>
  <g>
    <path class="cls-5" d="M27.0229,15.7449v15.2692h-3.2956c-3.442,0-6.2248-1.5014-8.9711-6.4079l-3.5517-6.4445c2.2335-.586,4.6504-1.0984,7.25-1.5014l.6591,1.2451v-1.3548c2.4535-.3661,5.0897-.6591,7.9093-.8057Z"/>
    <path class="cls-5" d="M8.1288,19.0038v12.0103h-3.442C2.4166,31.0141,0,29.403,0,26.3637v-4.6868c2.5632-.9154,5.2361-1.8308,8.1287-2.6732h0Z"/>
    <path class="cls-6" d="M18.4546,16.6603c-2.5996.403-5.0164.9154-7.25,1.5014l-1.5745-2.8926c-.8423-1.1353-1.4281-2.1971-1.5014-2.4901v6.2248C5.2361,19.8461,2.5632,20.7615,0,21.677V.6956h4.0277c4.4673,0,7.3966,2.1605,9.4471,6.2248,0,0,4.9798,9.7399,4.9798,9.7399Z"/>
    <path class="cls-6" d="M27.0229,4.6136v11.1313c-2.8195.1466-5.4558.4396-7.9093.8057V.6956h3.6983c1.9772,0,4.211,1.4647,4.211,3.918Z"/>
    <path class="cls-5" d="M48.5168,16.8436c-.4394.5858-.8423,1.0618-1.2084,1.4645v12.706h-3.625c-2.3069,0-4.7234-1.6111-4.7234-4.6504v-8.0923c-.6226-.8055-1.2817-1.6476-1.8675-2.563,4.1741.183,7.9457.5858,11.4243,1.1351h0Z"/>
    <path class="cls-6" d="M56.4259,3.3688c0,2.2335-4.8334,9.5202-7.909,13.4748-3.4786-.5493-7.2502-.9521-11.4243-1.1351h-.0367c-2.9293-4.1743-5.8588-9.5571-7.6163-15.0129h4.211c2.7462,0,4.4304,1.3181,5.0164,2.5998,1.2815,2.8195,3.149,6.0416,4.87,8.5317,1.9039-2.7098,4.3938-6.8839,5.7486-11.1315h3.9546c1.9408,0,3.1856,1.3548,3.1856,2.6732h.0001Z"/>
    <path class="cls-5" d="M81.801,21.6037c-.1097,6.1515-4.7234,10.1062-12.6691,10.1062-6.7009,0-10.2892-2.5632-10.2892-6.8839v-3.0026h.2197c1.9039,1.9406,5.8219,3.0757,9.3005,3.0757,3.8813,0,5.0897-.9154,5.0897-2.9293,0-.2197-.0367-.4394-.0733-.6591,2.3069.2563,4.6504.4027,7.1036.3663.4394,0,.8788,0,1.3181-.0733Z"/>
    <path class="cls-6" d="M81.801,21.384v.2197c-.4394.0733-.8788.0733-1.3181.0733-2.4532.0364-4.7967-.11-7.1036-.3663-.4027-1.3548-2.1602-1.9406-6.1882-2.7462-6.5909-1.3181-9.1541-3.7349-9.1541-8.3484C58.037,4.8334,62.9803,0,70.6697,0,78.1028,0,80.9589,3.3689,80.9589,6.4812v3.2223h-.2197c-2.0139-2.0139-5.6388-2.8928-8.8245-2.8928-4.1012,0-5.5291,1.0987-5.5291,2.8195,0,1.3548.5858,2.0872,6.1882,3.2223,6.2613,1.2815,9.2272,3.8447,9.2272,8.5317v-.0002Z"/>
    <path class="cls-6" d="M108.0551,6.4811v3.2223h-.2197c-2.0505-2.0139-5.6757-2.8928-8.8247-2.8928-4.1377,0-5.5658,1.0987-5.5658,2.8195,0,1.3548.586,2.0872,6.2248,3.2223,2.8928.586,5.0897,1.4647,6.5909,2.7096-3.515,1.1718-6.9936,2.3435-10.3989,3.3322h-.0367c-.476-.11-1.0251-.2197-1.5745-.3296-6.5909-1.3181-9.1175-3.7349-9.1175-8.3484C85.133,4.8335,90.0395.0001,97.7291.0001,105.1988.0001,108.055,3.369,108.055,6.4813v-.0002Z"/>
    <path class="cls-5" d="M108.8605,21.384c0,6.2613-4.6137,10.3259-12.6694,10.3259-6.664,0-10.2892-2.5632-10.2892-6.8839v-3.0026h.2197c1.9041,1.9406,5.8588,3.0757,9.3007,3.0757,3.8813,0,5.1262-.9154,5.1262-2.9293,0-1.6478-1.2815-2.3069-4.6868-3.0757,3.4053-.9887,6.8839-2.1605,10.3989-3.3322,1.7577,1.4281,2.5998,3.3322,2.5998,5.8221h0Z"/>
    <path class="cls-5" d="M135.8102,23.7639v3.1856c0,2.7829-1.7209,4.4307-7.0669,4.4307h-3.442c-7.9457,0-12.3397-4.0277-12.3397-12.413v-5.6022c2.8195-.9154,5.6391-1.7575,8.3486-2.4899,0,.6591-.0367,1.2448-.0367,1.7575h11.7173v3.0392c0,2.1969-1.6111,3.442-4.5771,3.442h-7.1402v1.0984c0,3.2223,1.0618,4.394,5.2728,4.394h2.1969c2.4899,0,4.6137-.2197,7.0669-.8423h0Z"/>
    <path class="cls-6" d="M135.8469.6956v1.9774c0,2.8926-1.5378,4.8332-5.0531,4.8332h-9.2272c-.11.9521-.1833,2.2338-.2563,3.3689-2.7096.7324-5.5291,1.5745-8.3486,2.4899.0367-2.6365.2197-5.4925.5493-7.6529.5491-3.8813,2.8926-5.0164,5.8219-5.0164h16.514Z"/>
  </g>
  <g>
    <path class="cls-1" d="M149.5026.7088v11.2482h6.5971v3.5028h-10.7348V.7088h4.1377Z"/>
    <path class="cls-3" d="M162.1117.7088v14.751h-4.1377V.7088h4.1377Z"/>
    <path class="cls-4" d="M178.1268.7088l-5.8187,14.8531h-3.0722l-5.8187-14.8531h4.5683l1.9874,5.6752.9426,2.8486.8805-2.8486,1.9667-5.6752h4.364,0Z"/>
    <path class="cls-2" d="M190.181.7088v3.4628h-6.6178v2.1309h5.798v3.4614h-5.798v2.233h6.8428v3.4628h-10.9804V.7088h10.7555,0Z"/>
  </g>
</svg>