<?xml version="1.0" encoding="UTF-8"?>
<!--Generator: Apple Native CoreSVG 232.5-->
<!DOCTYPE svg
PUBLIC "-//W3C//DTD SVG 1.1//EN"
       "http://www.w3.org/Graphics/SVG/1.1/DTD/svg11.dtd">
<svg version="1.1" xmlns="http://www.w3.org/2000/svg" xmlns:xlink="http://www.w3.org/1999/xlink" width="13.5539" height="13.2715">
 <g>
  <rect height="13.2715" opacity="0" width="13.5539" x="0" y="0"/>
  <path d="M2.49666 12.3281C2.73689 12.5156 3.04158 12.4512 3.40486 12.1875L6.50447 9.9082L9.60994 12.1875C9.97322 12.4512 10.272 12.5156 10.5181 12.3281C10.7584 12.1465 10.8111 11.8477 10.6646 11.4199L9.44002 7.77539L12.5689 5.52539C12.9322 5.26758 13.0787 4.99805 12.9849 4.70508C12.8912 4.42383 12.6158 4.2832 12.1646 4.28906L8.32674 4.3125L7.16072 0.650391C7.02009 0.216797 6.80916 0 6.50447 0C6.20564 0 5.9947 0.216797 5.85408 0.650391L4.68806 4.3125L0.850173 4.28906C0.399001 4.2832 0.12361 4.42383 0.0298601 4.70508C-0.0697493 4.99805 0.0825944 5.26758 0.445876 5.52539L3.57478 7.77539L2.35017 11.4199C2.20369 11.8477 2.25642 12.1465 2.49666 12.3281Z" fill="#ff9f0a"/>
 </g>
</svg>
