<svg pointer-events="none" width="1000" height="1000" viewBox="-49 -164 1000 1000" style="transform: translate3d(-49px, -164px, 0px);"><g><path stroke="#666" stroke-opacity="1" stroke-width="0.78" stroke-linecap="round" stroke-linejoin="round" fill="none" d="M167 215L173 233L175 235L181 237L185 235L198 236L203 235L209 230L221 229L224 227L227 222L228 213L231 207L218 198L194 193L161 197L159 202L167 215"></path><path stroke="#333" stroke-opacity="0.2" stroke-width="5.95" stroke-linecap="round" stroke-linejoin="round" fill="none" d="M167 215L173 233L175 235L181 237L185 235L198 236L203 235L209 230L221 229L224 227L227 222L228 213L231 207L218 198L194 193L161 197L159 202L167 215"></path><path stroke="#666" stroke-opacity="1" stroke-width="0.78" stroke-linecap="round" stroke-linejoin="round" fill="none" d="M125 163L126 169L114 181L116 191L115 204L118 221L124 238L183 280L191 280L235 254L269 228L265 222L258 217L259 156L239 149L125 163"></path><path stroke="#333" stroke-opacity="0.2" stroke-width="5.95" stroke-linecap="round" stroke-linejoin="round" fill="none" d="M125 163L126 169L114 181L116 191L115 204L118 221L124 238L183 280L191 280L235 254L269 228L265 222L258 217L259 156L239 149L125 163"></path><path stroke="#666" stroke-opacity="1" stroke-width="0.78" stroke-linecap="round" stroke-linejoin="round" fill="none" d="M32 101L48 78L75 84L87 95L83 108L87 123L89 141L87 144L70 151L65 168L48 191L28 190L26 188L7 192L-21 178L-17 192L-17 227L-39 230L-41 232L-39 236L-28 242L-21 238L-16 241L-29 255L-22 263L-5 304L2 314L-11 337L6 349L14 366L11 405L14 404L14 406L17 405L18 407L22 406L23 409L27 408L28 412L42 407L42 413L50 409L52 420L47 423L48 426L54 428L56 426L60 429L63 427L66 430L62 434L106 430L116 434L161 422L159 418L160 417L153 414L152 411L155 409L156 410L157 408L160 410L159 407L163 403L163 401L164 403L166 402L176 392L177 388L183 392L185 401L185 398L187 398L186 401L195 407L195 409L205 411L201 414L199 422L205 425L208 423L231 433L239 429L246 432L250 445L258 446L258 454L254 461L254 464L259 464L255 469L253 467L248 476L252 478L244 487L246 489L252 486L245 495L251 498L249 500L250 502L252 500L253 502L250 504L253 507L256 506L258 508L283 495L282 494L287 491L290 491L292 494L296 495L297 493L314 488L325 492L326 488L323 486L322 482L324 477L341 476L358 472L381 441L370 428L367 420L370 415L372 415L373 412L371 411L377 404L353 388L334 385L311 366L305 365L305 354L310 345L302 336L303 330L312 322L308 315L325 307L342 303L342 301L346 302L356 296L356 293L358 293L360 289L364 287L368 289L372 281L377 286L378 284L381 286L383 283L378 284L376 254L382 253L392 257L395 262L402 261L424 267L426 266L428 268L435 270M435 25L427 25L418 18L402 -5L400 -4L386 -31L375 -26L356 -42L315 -36L306 -18L303 -19L274 -13L236 -37L220 -52L215 -51L213 -57L232 -75L230 -84L222 -97L216 -126L217 -139L205 -155L195 -152L193 -164M27 -164L26 -162L24 -162L22 -152L19 -147L22 -139L42 -125L62 -117L65 -115L65 -112L69 -114L72 -113L73 -108L71 -102L72 -100L75 -101L76 -92L76 -86L73 -86L72 -81L79 -81L79 -77L89 -82L90 -73L96 -73L104 -77L105 -73L97 -69L99 -64L122 -68L122 -66L125 -67L126 -39L96 -33L76 -37L72 -31L62 -32L44 -14L41 -3L32 -12L25 1L35 3L37 7L20 19L16 16L12 16L4 9L-14 27L-8 52L-14 87L-10 83L2 79L22 80L22 88L26 95L32 101"></path><path stroke="#333" stroke-opacity="0.2" stroke-width="5.95" stroke-linecap="round" stroke-linejoin="round" fill="none" d="M32 101L48 78L75 84L87 95L83 108L87 123L89 141L87 144L70 151L65 168L48 191L28 190L26 188L7 192L-21 178L-17 192L-17 227L-39 230L-41 232L-39 236L-28 242L-21 238L-16 241L-29 255L-22 263L-5 304L2 314L-11 337L6 349L14 366L11 405L14 404L14 406L17 405L18 407L22 406L23 409L27 408L28 412L42 407L42 413L50 409L52 420L47 423L48 426L54 428L56 426L60 429L63 427L66 430L62 434L106 430L116 434L161 422L159 418L160 417L153 414L152 411L155 409L156 410L157 408L160 410L159 407L163 403L163 401L164 403L166 402L176 392L177 388L183 392L185 401L185 398L187 398L186 401L195 407L195 409L205 411L201 414L199 422L205 425L208 423L231 433L239 429L246 432L250 445L258 446L258 454L254 461L254 464L259 464L255 469L253 467L248 476L252 478L244 487L246 489L252 486L245 495L251 498L249 500L250 502L252 500L253 502L250 504L253 507L256 506L258 508L283 495L282 494L287 491L290 491L292 494L296 495L297 493L314 488L325 492L326 488L323 486L322 482L324 477L341 476L358 472L381 441L370 428L367 420L370 415L372 415L373 412L371 411L377 404L353 388L334 385L311 366L305 365L305 354L310 345L302 336L303 330L312 322L308 315L325 307L342 303L342 301L346 302L356 296L356 293L358 293L360 289L364 287L368 289L372 281L377 286L378 284L381 286L383 283L378 284L376 254L382 253L392 257L395 262L402 261L424 267L426 266L428 268L435 270M435 25L427 25L418 18L402 -5L400 -4L386 -31L375 -26L356 -42L315 -36L306 -18L303 -19L274 -13L236 -37L220 -52L215 -51L213 -57L232 -75L230 -84L222 -97L216 -126L217 -139L205 -155L195 -152L193 -164M27 -164L26 -162L24 -162L22 -152L19 -147L22 -139L42 -125L62 -117L65 -115L65 -112L69 -114L72 -113L73 -108L71 -102L72 -100L75 -101L76 -92L76 -86L73 -86L72 -81L79 -81L79 -77L89 -82L90 -73L96 -73L104 -77L105 -73L97 -69L99 -64L122 -68L122 -66L125 -67L126 -39L96 -33L76 -37L72 -31L62 -32L44 -14L41 -3L32 -12L25 1L35 3L37 7L20 19L16 16L12 16L4 9L-14 27L-8 52L-14 87L-10 83L2 79L22 80L22 88L26 95L32 101"></path></g></svg>