<?xml version="1.0" encoding="UTF-8"?>
<!--Generator: Apple Native CoreSVG 232.5-->
<!DOCTYPE svg
PUBLIC "-//W3C//DTD SVG 1.1//EN"
       "http://www.w3.org/Graphics/SVG/1.1/DTD/svg11.dtd">
<svg version="1.1" xmlns="http://www.w3.org/2000/svg" xmlns:xlink="http://www.w3.org/1999/xlink" width="12.4922" height="11.959">
 <g>
  <rect height="11.959" opacity="0" width="12.4922" x="0" y="0"/>
  <path d="M5.97656 11.959C9.24609 11.959 11.9531 9.25195 11.9531 5.98242C11.9531 2.71875 9.24023 0.00585938 5.9707 0.00585938C2.70703 0.00585938 0 2.71875 0 5.98242C0 9.25195 2.71289 11.959 5.97656 11.959Z" fill="#007aff"/>
  <path d="M2.68945 8.26172L2.68945 3.39844C2.68945 3.2168 2.8418 3.05859 3.02344 3.05859C3.20508 3.05859 3.36328 3.2168 3.36328 3.39844L3.36328 5.8125L4.125 5.04492C4.26562 4.9043 4.40625 4.82812 4.58789 4.82812C4.76367 4.82812 4.91602 4.89844 5.05664 5.04492L6.12305 6.14062C6.15234 6.17578 6.17578 6.17578 6.20508 6.13477L7.28906 5.03906L6.85547 4.61133C6.70312 4.46484 6.79688 4.23633 7.01367 4.18359L8.74219 3.75C8.94141 3.69727 9.12305 3.86719 9.07031 4.06055L8.63086 5.80078C8.57227 6.0293 8.34375 6.11133 8.19727 5.95898L7.76953 5.51953L6.63281 6.67969C6.49219 6.82031 6.33398 6.89648 6.1582 6.89648C5.98828 6.89648 5.83594 6.82617 5.68945 6.67969L4.63477 5.5957C4.60547 5.56055 4.57617 5.56055 4.54102 5.5957L3.36328 6.7793L3.36328 8.00977C3.36328 8.05078 3.375 8.06836 3.41016 8.06836L8.91797 8.06836C9.09961 8.06836 9.25781 8.2207 9.25781 8.4082C9.25781 8.58984 9.09961 8.74219 8.91797 8.74219L3.16406 8.74219C2.87695 8.74219 2.68945 8.55469 2.68945 8.26172Z" fill="#ffffff" fill-opacity="0.85"/>
 </g>
</svg>
