<?xml version="1.0" encoding="UTF-8"?>
<!--Generator: Apple Native CoreSVG 232.5-->
<!DOCTYPE svg
PUBLIC "-//W3C//DTD SVG 1.1//EN"
       "http://www.w3.org/Graphics/SVG/1.1/DTD/svg11.dtd">
<svg version="1.1" xmlns="http://www.w3.org/2000/svg" xmlns:xlink="http://www.w3.org/1999/xlink" width="12.7266" height="11.4902">
 <g>
  <rect height="11.4902" opacity="0" width="12.7266" x="0" y="0"/>
  <path d="M0 10.6172C0 11.0449 0.246094 11.291 0.667969 11.291C0.820312 11.291 0.966797 11.2441 1.16016 11.1387L3.62109 9.80859L3.62109 0.0996094C3.51562 0.152344 3.39844 0.210938 3.29297 0.269531L0.515625 1.86328C0.164062 2.05664 0 2.33789 0 2.73047ZM4.42383 9.69727L7.37695 11.3555C7.46484 11.4023 7.55859 11.4434 7.64648 11.4668L7.64648 1.9043L4.75195 0.134766C4.65234 0.0703125 4.53516 0.0234375 4.42383 0ZM8.44336 11.4492C8.50195 11.4316 8.56641 11.4082 8.61914 11.373L11.6719 9.63867C12.0234 9.44531 12.1875 9.16406 12.1875 8.77148L12.1875 0.878906C12.1875 0.445312 11.9414 0.205078 11.5195 0.205078C11.3672 0.205078 11.2207 0.251953 11.0273 0.357422L8.44336 1.79297Z" fill="#007aff"/>
 </g>
</svg>
